<?xml version="1.0" encoding="utf-8" standalone="no"?>
<!DOCTYPE svg PUBLIC "-//W3C//DTD SVG 1.1//EN"
  "http://www.w3.org/Graphics/SVG/1.1/DTD/svg11.dtd">
<svg xmlns:xlink="http://www.w3.org/1999/xlink" width="616.73625pt" height="503.279062pt" viewBox="0 0 616.73625 503.279062" xmlns="http://www.w3.org/2000/svg" version="1.1">
 <metadata>
  <rdf:RDF xmlns:dc="http://purl.org/dc/elements/1.1/" xmlns:cc="http://creativecommons.org/ns#" xmlns:rdf="http://www.w3.org/1999/02/22-rdf-syntax-ns#">
   <cc:Work>
    <dc:type rdf:resource="http://purl.org/dc/dcmitype/StillImage"/>
    <dc:date>2025-07-29T20:39:54.587984</dc:date>
    <dc:format>image/svg+xml</dc:format>
    <dc:creator>
     <cc:Agent>
      <dc:title>Matplotlib v3.10.3, https://matplotlib.org/</dc:title>
     </cc:Agent>
    </dc:creator>
   </cc:Work>
  </rdf:RDF>
 </metadata>
 <defs>
  <style type="text/css">*{stroke-linejoin: round; stroke-linecap: butt}</style>
 </defs>
 <g id="figure_1">
  <g id="patch_1">
   <path d="M 0 503.279062 
L 616.73625 503.279062 
L 616.73625 0 
L 0 0 
z
" style="fill: #ffffff"/>
  </g>
  <g id="axes_1">
   <g id="patch_2">
    <path d="M 51.53625 468.1725 
L 609.53625 468.1725 
L 609.53625 24.6525 
L 51.53625 24.6525 
z
" style="fill: #ffffff"/>
   </g>
   <g id="matplotlib.axis_1">
    <g id="xtick_1">
     <g id="line2d_1">
      <path d="M 76.899886 468.1725 
L 76.899886 24.6525 
" clip-path="url(#p6e5e72ec29)" style="fill: none; stroke: #cccccc; stroke-width: 0.8; stroke-linecap: round"/>
     </g>
     <g id="line2d_2"/>
     <g id="text_1">
      <!-- 0% -->
      <g style="fill: #262626" transform="translate(69.673324 478.830312) scale(0.1 -0.1)">
       <defs>
        <path id="ArialMT-30" d="M 266 2259 
Q 266 3072 433 3567 
Q 600 4063 929 4331 
Q 1259 4600 1759 4600 
Q 2128 4600 2406 4451 
Q 2684 4303 2865 4023 
Q 3047 3744 3150 3342 
Q 3253 2941 3253 2259 
Q 3253 1453 3087 958 
Q 2922 463 2592 192 
Q 2263 -78 1759 -78 
Q 1097 -78 719 397 
Q 266 969 266 2259 
z
M 844 2259 
Q 844 1131 1108 757 
Q 1372 384 1759 384 
Q 2147 384 2411 759 
Q 2675 1134 2675 2259 
Q 2675 3391 2411 3762 
Q 2147 4134 1753 4134 
Q 1366 4134 1134 3806 
Q 844 3388 844 2259 
z
" transform="scale(0.015625)"/>
        <path id="ArialMT-25" d="M 372 3481 
Q 372 3972 619 4315 
Q 866 4659 1334 4659 
Q 1766 4659 2048 4351 
Q 2331 4044 2331 3447 
Q 2331 2866 2045 2552 
Q 1759 2238 1341 2238 
Q 925 2238 648 2547 
Q 372 2856 372 3481 
z
M 1350 4272 
Q 1141 4272 1002 4090 
Q 863 3909 863 3425 
Q 863 2984 1003 2804 
Q 1144 2625 1350 2625 
Q 1563 2625 1702 2806 
Q 1841 2988 1841 3469 
Q 1841 3913 1700 4092 
Q 1559 4272 1350 4272 
z
M 1353 -169 
L 3859 4659 
L 4316 4659 
L 1819 -169 
L 1353 -169 
z
M 3334 1075 
Q 3334 1569 3581 1911 
Q 3828 2253 4300 2253 
Q 4731 2253 5014 1945 
Q 5297 1638 5297 1041 
Q 5297 459 5011 145 
Q 4725 -169 4303 -169 
Q 3888 -169 3611 142 
Q 3334 453 3334 1075 
z
M 4316 1866 
Q 4103 1866 3964 1684 
Q 3825 1503 3825 1019 
Q 3825 581 3965 400 
Q 4106 219 4313 219 
Q 4528 219 4667 400 
Q 4806 581 4806 1063 
Q 4806 1506 4665 1686 
Q 4525 1866 4316 1866 
z
" transform="scale(0.015625)"/>
       </defs>
       <use xlink:href="#ArialMT-30"/>
       <use xlink:href="#ArialMT-25" transform="translate(55.615234 0)"/>
      </g>
     </g>
    </g>
    <g id="xtick_2">
     <g id="line2d_3">
      <path d="M 178.354432 468.1725 
L 178.354432 24.6525 
" clip-path="url(#p6e5e72ec29)" style="fill: none; stroke: #cccccc; stroke-width: 0.8; stroke-linecap: round"/>
     </g>
     <g id="line2d_4"/>
     <g id="text_2">
      <!-- 20% -->
      <g style="fill: #262626" transform="translate(168.347401 478.830312) scale(0.1 -0.1)">
       <defs>
        <path id="ArialMT-32" d="M 3222 541 
L 3222 0 
L 194 0 
Q 188 203 259 391 
Q 375 700 629 1000 
Q 884 1300 1366 1694 
Q 2113 2306 2375 2664 
Q 2638 3022 2638 3341 
Q 2638 3675 2398 3904 
Q 2159 4134 1775 4134 
Q 1369 4134 1125 3890 
Q 881 3647 878 3216 
L 300 3275 
Q 359 3922 746 4261 
Q 1134 4600 1788 4600 
Q 2447 4600 2831 4234 
Q 3216 3869 3216 3328 
Q 3216 3053 3103 2787 
Q 2991 2522 2730 2228 
Q 2469 1934 1863 1422 
Q 1356 997 1212 845 
Q 1069 694 975 541 
L 3222 541 
z
" transform="scale(0.015625)"/>
       </defs>
       <use xlink:href="#ArialMT-32"/>
       <use xlink:href="#ArialMT-30" transform="translate(55.615234 0)"/>
       <use xlink:href="#ArialMT-25" transform="translate(111.230469 0)"/>
      </g>
     </g>
    </g>
    <g id="xtick_3">
     <g id="line2d_5">
      <path d="M 279.808977 468.1725 
L 279.808977 24.6525 
" clip-path="url(#p6e5e72ec29)" style="fill: none; stroke: #cccccc; stroke-width: 0.8; stroke-linecap: round"/>
     </g>
     <g id="line2d_6"/>
     <g id="text_3">
      <!-- 40% -->
      <g style="fill: #262626" transform="translate(269.801946 478.830312) scale(0.1 -0.1)">
       <defs>
        <path id="ArialMT-34" d="M 2069 0 
L 2069 1097 
L 81 1097 
L 81 1613 
L 2172 4581 
L 2631 4581 
L 2631 1613 
L 3250 1613 
L 3250 1097 
L 2631 1097 
L 2631 0 
L 2069 0 
z
M 2069 1613 
L 2069 3678 
L 634 1613 
L 2069 1613 
z
" transform="scale(0.015625)"/>
       </defs>
       <use xlink:href="#ArialMT-34"/>
       <use xlink:href="#ArialMT-30" transform="translate(55.615234 0)"/>
       <use xlink:href="#ArialMT-25" transform="translate(111.230469 0)"/>
      </g>
     </g>
    </g>
    <g id="xtick_4">
     <g id="line2d_7">
      <path d="M 381.263523 468.1725 
L 381.263523 24.6525 
" clip-path="url(#p6e5e72ec29)" style="fill: none; stroke: #cccccc; stroke-width: 0.8; stroke-linecap: round"/>
     </g>
     <g id="line2d_8"/>
     <g id="text_4">
      <!-- 60% -->
      <g style="fill: #262626" transform="translate(371.256491 478.830312) scale(0.1 -0.1)">
       <defs>
        <path id="ArialMT-36" d="M 3184 3459 
L 2625 3416 
Q 2550 3747 2413 3897 
Q 2184 4138 1850 4138 
Q 1581 4138 1378 3988 
Q 1113 3794 959 3422 
Q 806 3050 800 2363 
Q 1003 2672 1297 2822 
Q 1591 2972 1913 2972 
Q 2475 2972 2870 2558 
Q 3266 2144 3266 1488 
Q 3266 1056 3080 686 
Q 2894 316 2569 119 
Q 2244 -78 1831 -78 
Q 1128 -78 684 439 
Q 241 956 241 2144 
Q 241 3472 731 4075 
Q 1159 4600 1884 4600 
Q 2425 4600 2770 4297 
Q 3116 3994 3184 3459 
z
M 888 1484 
Q 888 1194 1011 928 
Q 1134 663 1356 523 
Q 1578 384 1822 384 
Q 2178 384 2434 671 
Q 2691 959 2691 1453 
Q 2691 1928 2437 2201 
Q 2184 2475 1800 2475 
Q 1419 2475 1153 2201 
Q 888 1928 888 1484 
z
" transform="scale(0.015625)"/>
       </defs>
       <use xlink:href="#ArialMT-36"/>
       <use xlink:href="#ArialMT-30" transform="translate(55.615234 0)"/>
       <use xlink:href="#ArialMT-25" transform="translate(111.230469 0)"/>
      </g>
     </g>
    </g>
    <g id="xtick_5">
     <g id="line2d_9">
      <path d="M 482.718068 468.1725 
L 482.718068 24.6525 
" clip-path="url(#p6e5e72ec29)" style="fill: none; stroke: #cccccc; stroke-width: 0.8; stroke-linecap: round"/>
     </g>
     <g id="line2d_10"/>
     <g id="text_5">
      <!-- 80% -->
      <g style="fill: #262626" transform="translate(472.711037 478.830312) scale(0.1 -0.1)">
       <defs>
        <path id="ArialMT-38" d="M 1131 2484 
Q 781 2613 612 2850 
Q 444 3088 444 3419 
Q 444 3919 803 4259 
Q 1163 4600 1759 4600 
Q 2359 4600 2725 4251 
Q 3091 3903 3091 3403 
Q 3091 3084 2923 2848 
Q 2756 2613 2416 2484 
Q 2838 2347 3058 2040 
Q 3278 1734 3278 1309 
Q 3278 722 2862 322 
Q 2447 -78 1769 -78 
Q 1091 -78 675 323 
Q 259 725 259 1325 
Q 259 1772 486 2073 
Q 713 2375 1131 2484 
z
M 1019 3438 
Q 1019 3113 1228 2906 
Q 1438 2700 1772 2700 
Q 2097 2700 2305 2904 
Q 2513 3109 2513 3406 
Q 2513 3716 2298 3927 
Q 2084 4138 1766 4138 
Q 1444 4138 1231 3931 
Q 1019 3725 1019 3438 
z
M 838 1322 
Q 838 1081 952 856 
Q 1066 631 1291 507 
Q 1516 384 1775 384 
Q 2178 384 2440 643 
Q 2703 903 2703 1303 
Q 2703 1709 2433 1975 
Q 2163 2241 1756 2241 
Q 1359 2241 1098 1978 
Q 838 1716 838 1322 
z
" transform="scale(0.015625)"/>
       </defs>
       <use xlink:href="#ArialMT-38"/>
       <use xlink:href="#ArialMT-30" transform="translate(55.615234 0)"/>
       <use xlink:href="#ArialMT-25" transform="translate(111.230469 0)"/>
      </g>
     </g>
    </g>
    <g id="xtick_6">
     <g id="line2d_11">
      <path d="M 584.172614 468.1725 
L 584.172614 24.6525 
" clip-path="url(#p6e5e72ec29)" style="fill: none; stroke: #cccccc; stroke-width: 0.8; stroke-linecap: round"/>
     </g>
     <g id="line2d_12"/>
     <g id="text_6">
      <!-- 100% -->
      <g style="fill: #262626" transform="translate(571.385114 478.830312) scale(0.1 -0.1)">
       <defs>
        <path id="ArialMT-31" d="M 2384 0 
L 1822 0 
L 1822 3584 
Q 1619 3391 1289 3197 
Q 959 3003 697 2906 
L 697 3450 
Q 1169 3672 1522 3987 
Q 1875 4303 2022 4600 
L 2384 4600 
L 2384 0 
z
" transform="scale(0.015625)"/>
       </defs>
       <use xlink:href="#ArialMT-31"/>
       <use xlink:href="#ArialMT-30" transform="translate(55.615234 0)"/>
       <use xlink:href="#ArialMT-30" transform="translate(111.230469 0)"/>
       <use xlink:href="#ArialMT-25" transform="translate(166.845703 0)"/>
      </g>
     </g>
    </g>
    <g id="text_7">
     <!-- Percentage of Bugs Targeted (sorted by score) -->
     <g style="fill: #262626" transform="translate(206.252813 493.553437) scale(0.12 -0.12)">
      <defs>
       <path id="ArialMT-50" d="M 494 0 
L 494 4581 
L 2222 4581 
Q 2678 4581 2919 4538 
Q 3256 4481 3484 4323 
Q 3713 4166 3852 3881 
Q 3991 3597 3991 3256 
Q 3991 2672 3619 2267 
Q 3247 1863 2275 1863 
L 1100 1863 
L 1100 0 
L 494 0 
z
M 1100 2403 
L 2284 2403 
Q 2872 2403 3119 2622 
Q 3366 2841 3366 3238 
Q 3366 3525 3220 3729 
Q 3075 3934 2838 4000 
Q 2684 4041 2272 4041 
L 1100 4041 
L 1100 2403 
z
" transform="scale(0.015625)"/>
       <path id="ArialMT-65" d="M 2694 1069 
L 3275 997 
Q 3138 488 2766 206 
Q 2394 -75 1816 -75 
Q 1088 -75 661 373 
Q 234 822 234 1631 
Q 234 2469 665 2931 
Q 1097 3394 1784 3394 
Q 2450 3394 2872 2941 
Q 3294 2488 3294 1666 
Q 3294 1616 3291 1516 
L 816 1516 
Q 847 969 1125 678 
Q 1403 388 1819 388 
Q 2128 388 2347 550 
Q 2566 713 2694 1069 
z
M 847 1978 
L 2700 1978 
Q 2663 2397 2488 2606 
Q 2219 2931 1791 2931 
Q 1403 2931 1139 2672 
Q 875 2413 847 1978 
z
" transform="scale(0.015625)"/>
       <path id="ArialMT-72" d="M 416 0 
L 416 3319 
L 922 3319 
L 922 2816 
Q 1116 3169 1280 3281 
Q 1444 3394 1641 3394 
Q 1925 3394 2219 3213 
L 2025 2691 
Q 1819 2813 1613 2813 
Q 1428 2813 1281 2702 
Q 1134 2591 1072 2394 
Q 978 2094 978 1738 
L 978 0 
L 416 0 
z
" transform="scale(0.015625)"/>
       <path id="ArialMT-63" d="M 2588 1216 
L 3141 1144 
Q 3050 572 2676 248 
Q 2303 -75 1759 -75 
Q 1078 -75 664 370 
Q 250 816 250 1647 
Q 250 2184 428 2587 
Q 606 2991 970 3192 
Q 1334 3394 1763 3394 
Q 2303 3394 2647 3120 
Q 2991 2847 3088 2344 
L 2541 2259 
Q 2463 2594 2264 2762 
Q 2066 2931 1784 2931 
Q 1359 2931 1093 2626 
Q 828 2322 828 1663 
Q 828 994 1084 691 
Q 1341 388 1753 388 
Q 2084 388 2306 591 
Q 2528 794 2588 1216 
z
" transform="scale(0.015625)"/>
       <path id="ArialMT-6e" d="M 422 0 
L 422 3319 
L 928 3319 
L 928 2847 
Q 1294 3394 1984 3394 
Q 2284 3394 2536 3286 
Q 2788 3178 2913 3003 
Q 3038 2828 3088 2588 
Q 3119 2431 3119 2041 
L 3119 0 
L 2556 0 
L 2556 2019 
Q 2556 2363 2490 2533 
Q 2425 2703 2258 2804 
Q 2091 2906 1866 2906 
Q 1506 2906 1245 2678 
Q 984 2450 984 1813 
L 984 0 
L 422 0 
z
" transform="scale(0.015625)"/>
       <path id="ArialMT-74" d="M 1650 503 
L 1731 6 
Q 1494 -44 1306 -44 
Q 1000 -44 831 53 
Q 663 150 594 308 
Q 525 466 525 972 
L 525 2881 
L 113 2881 
L 113 3319 
L 525 3319 
L 525 4141 
L 1084 4478 
L 1084 3319 
L 1650 3319 
L 1650 2881 
L 1084 2881 
L 1084 941 
Q 1084 700 1114 631 
Q 1144 563 1211 522 
Q 1278 481 1403 481 
Q 1497 481 1650 503 
z
" transform="scale(0.015625)"/>
       <path id="ArialMT-61" d="M 2588 409 
Q 2275 144 1986 34 
Q 1697 -75 1366 -75 
Q 819 -75 525 192 
Q 231 459 231 875 
Q 231 1119 342 1320 
Q 453 1522 633 1644 
Q 813 1766 1038 1828 
Q 1203 1872 1538 1913 
Q 2219 1994 2541 2106 
Q 2544 2222 2544 2253 
Q 2544 2597 2384 2738 
Q 2169 2928 1744 2928 
Q 1347 2928 1158 2789 
Q 969 2650 878 2297 
L 328 2372 
Q 403 2725 575 2942 
Q 747 3159 1072 3276 
Q 1397 3394 1825 3394 
Q 2250 3394 2515 3294 
Q 2781 3194 2906 3042 
Q 3031 2891 3081 2659 
Q 3109 2516 3109 2141 
L 3109 1391 
Q 3109 606 3145 398 
Q 3181 191 3288 0 
L 2700 0 
Q 2613 175 2588 409 
z
M 2541 1666 
Q 2234 1541 1622 1453 
Q 1275 1403 1131 1340 
Q 988 1278 909 1158 
Q 831 1038 831 891 
Q 831 666 1001 516 
Q 1172 366 1500 366 
Q 1825 366 2078 508 
Q 2331 650 2450 897 
Q 2541 1088 2541 1459 
L 2541 1666 
z
" transform="scale(0.015625)"/>
       <path id="ArialMT-67" d="M 319 -275 
L 866 -356 
Q 900 -609 1056 -725 
Q 1266 -881 1628 -881 
Q 2019 -881 2231 -725 
Q 2444 -569 2519 -288 
Q 2563 -116 2559 434 
Q 2191 0 1641 0 
Q 956 0 581 494 
Q 206 988 206 1678 
Q 206 2153 378 2554 
Q 550 2956 876 3175 
Q 1203 3394 1644 3394 
Q 2231 3394 2613 2919 
L 2613 3319 
L 3131 3319 
L 3131 450 
Q 3131 -325 2973 -648 
Q 2816 -972 2473 -1159 
Q 2131 -1347 1631 -1347 
Q 1038 -1347 672 -1080 
Q 306 -813 319 -275 
z
M 784 1719 
Q 784 1066 1043 766 
Q 1303 466 1694 466 
Q 2081 466 2343 764 
Q 2606 1063 2606 1700 
Q 2606 2309 2336 2618 
Q 2066 2928 1684 2928 
Q 1309 2928 1046 2623 
Q 784 2319 784 1719 
z
" transform="scale(0.015625)"/>
       <path id="ArialMT-20" transform="scale(0.015625)"/>
       <path id="ArialMT-6f" d="M 213 1659 
Q 213 2581 725 3025 
Q 1153 3394 1769 3394 
Q 2453 3394 2887 2945 
Q 3322 2497 3322 1706 
Q 3322 1066 3130 698 
Q 2938 331 2570 128 
Q 2203 -75 1769 -75 
Q 1072 -75 642 372 
Q 213 819 213 1659 
z
M 791 1659 
Q 791 1022 1069 705 
Q 1347 388 1769 388 
Q 2188 388 2466 706 
Q 2744 1025 2744 1678 
Q 2744 2294 2464 2611 
Q 2184 2928 1769 2928 
Q 1347 2928 1069 2612 
Q 791 2297 791 1659 
z
" transform="scale(0.015625)"/>
       <path id="ArialMT-66" d="M 556 0 
L 556 2881 
L 59 2881 
L 59 3319 
L 556 3319 
L 556 3672 
Q 556 4006 616 4169 
Q 697 4388 901 4523 
Q 1106 4659 1475 4659 
Q 1713 4659 2000 4603 
L 1916 4113 
Q 1741 4144 1584 4144 
Q 1328 4144 1222 4034 
Q 1116 3925 1116 3625 
L 1116 3319 
L 1763 3319 
L 1763 2881 
L 1116 2881 
L 1116 0 
L 556 0 
z
" transform="scale(0.015625)"/>
       <path id="ArialMT-42" d="M 469 0 
L 469 4581 
L 2188 4581 
Q 2713 4581 3030 4442 
Q 3347 4303 3526 4014 
Q 3706 3725 3706 3409 
Q 3706 3116 3547 2856 
Q 3388 2597 3066 2438 
Q 3481 2316 3704 2022 
Q 3928 1728 3928 1328 
Q 3928 1006 3792 729 
Q 3656 453 3456 303 
Q 3256 153 2954 76 
Q 2653 0 2216 0 
L 469 0 
z
M 1075 2656 
L 2066 2656 
Q 2469 2656 2644 2709 
Q 2875 2778 2992 2937 
Q 3109 3097 3109 3338 
Q 3109 3566 3000 3739 
Q 2891 3913 2687 3977 
Q 2484 4041 1991 4041 
L 1075 4041 
L 1075 2656 
z
M 1075 541 
L 2216 541 
Q 2509 541 2628 563 
Q 2838 600 2978 687 
Q 3119 775 3209 942 
Q 3300 1109 3300 1328 
Q 3300 1584 3169 1773 
Q 3038 1963 2805 2039 
Q 2572 2116 2134 2116 
L 1075 2116 
L 1075 541 
z
" transform="scale(0.015625)"/>
       <path id="ArialMT-75" d="M 2597 0 
L 2597 488 
Q 2209 -75 1544 -75 
Q 1250 -75 995 37 
Q 741 150 617 320 
Q 494 491 444 738 
Q 409 903 409 1263 
L 409 3319 
L 972 3319 
L 972 1478 
Q 972 1038 1006 884 
Q 1059 663 1231 536 
Q 1403 409 1656 409 
Q 1909 409 2131 539 
Q 2353 669 2445 892 
Q 2538 1116 2538 1541 
L 2538 3319 
L 3100 3319 
L 3100 0 
L 2597 0 
z
" transform="scale(0.015625)"/>
       <path id="ArialMT-73" d="M 197 991 
L 753 1078 
Q 800 744 1014 566 
Q 1228 388 1613 388 
Q 2000 388 2187 545 
Q 2375 703 2375 916 
Q 2375 1106 2209 1216 
Q 2094 1291 1634 1406 
Q 1016 1563 777 1677 
Q 538 1791 414 1992 
Q 291 2194 291 2438 
Q 291 2659 392 2848 
Q 494 3038 669 3163 
Q 800 3259 1026 3326 
Q 1253 3394 1513 3394 
Q 1903 3394 2198 3281 
Q 2494 3169 2634 2976 
Q 2775 2784 2828 2463 
L 2278 2388 
Q 2241 2644 2061 2787 
Q 1881 2931 1553 2931 
Q 1166 2931 1000 2803 
Q 834 2675 834 2503 
Q 834 2394 903 2306 
Q 972 2216 1119 2156 
Q 1203 2125 1616 2013 
Q 2213 1853 2448 1751 
Q 2684 1650 2818 1456 
Q 2953 1263 2953 975 
Q 2953 694 2789 445 
Q 2625 197 2315 61 
Q 2006 -75 1616 -75 
Q 969 -75 630 194 
Q 291 463 197 991 
z
" transform="scale(0.015625)"/>
       <path id="ArialMT-54" d="M 1659 0 
L 1659 4041 
L 150 4041 
L 150 4581 
L 3781 4581 
L 3781 4041 
L 2266 4041 
L 2266 0 
L 1659 0 
z
" transform="scale(0.015625)"/>
       <path id="ArialMT-64" d="M 2575 0 
L 2575 419 
Q 2259 -75 1647 -75 
Q 1250 -75 917 144 
Q 584 363 401 755 
Q 219 1147 219 1656 
Q 219 2153 384 2558 
Q 550 2963 881 3178 
Q 1213 3394 1622 3394 
Q 1922 3394 2156 3267 
Q 2391 3141 2538 2938 
L 2538 4581 
L 3097 4581 
L 3097 0 
L 2575 0 
z
M 797 1656 
Q 797 1019 1065 703 
Q 1334 388 1700 388 
Q 2069 388 2326 689 
Q 2584 991 2584 1609 
Q 2584 2291 2321 2609 
Q 2059 2928 1675 2928 
Q 1300 2928 1048 2622 
Q 797 2316 797 1656 
z
" transform="scale(0.015625)"/>
       <path id="ArialMT-28" d="M 1497 -1347 
Q 1031 -759 709 28 
Q 388 816 388 1659 
Q 388 2403 628 3084 
Q 909 3875 1497 4659 
L 1900 4659 
Q 1522 4009 1400 3731 
Q 1209 3300 1100 2831 
Q 966 2247 966 1656 
Q 966 153 1900 -1347 
L 1497 -1347 
z
" transform="scale(0.015625)"/>
       <path id="ArialMT-62" d="M 941 0 
L 419 0 
L 419 4581 
L 981 4581 
L 981 2947 
Q 1338 3394 1891 3394 
Q 2197 3394 2470 3270 
Q 2744 3147 2920 2923 
Q 3097 2700 3197 2384 
Q 3297 2069 3297 1709 
Q 3297 856 2875 390 
Q 2453 -75 1863 -75 
Q 1275 -75 941 416 
L 941 0 
z
M 934 1684 
Q 934 1088 1097 822 
Q 1363 388 1816 388 
Q 2184 388 2453 708 
Q 2722 1028 2722 1663 
Q 2722 2313 2464 2622 
Q 2206 2931 1841 2931 
Q 1472 2931 1203 2611 
Q 934 2291 934 1684 
z
" transform="scale(0.015625)"/>
       <path id="ArialMT-79" d="M 397 -1278 
L 334 -750 
Q 519 -800 656 -800 
Q 844 -800 956 -737 
Q 1069 -675 1141 -563 
Q 1194 -478 1313 -144 
Q 1328 -97 1363 -6 
L 103 3319 
L 709 3319 
L 1400 1397 
Q 1534 1031 1641 628 
Q 1738 1016 1872 1384 
L 2581 3319 
L 3144 3319 
L 1881 -56 
Q 1678 -603 1566 -809 
Q 1416 -1088 1222 -1217 
Q 1028 -1347 759 -1347 
Q 597 -1347 397 -1278 
z
" transform="scale(0.015625)"/>
       <path id="ArialMT-29" d="M 791 -1347 
L 388 -1347 
Q 1322 153 1322 1656 
Q 1322 2244 1188 2822 
Q 1081 3291 891 3722 
Q 769 4003 388 4659 
L 791 4659 
Q 1378 3875 1659 3084 
Q 1900 2403 1900 1659 
Q 1900 816 1576 28 
Q 1253 -759 791 -1347 
z
" transform="scale(0.015625)"/>
      </defs>
      <use xlink:href="#ArialMT-50"/>
      <use xlink:href="#ArialMT-65" transform="translate(66.699219 0)"/>
      <use xlink:href="#ArialMT-72" transform="translate(122.314453 0)"/>
      <use xlink:href="#ArialMT-63" transform="translate(155.615234 0)"/>
      <use xlink:href="#ArialMT-65" transform="translate(205.615234 0)"/>
      <use xlink:href="#ArialMT-6e" transform="translate(261.230469 0)"/>
      <use xlink:href="#ArialMT-74" transform="translate(316.845703 0)"/>
      <use xlink:href="#ArialMT-61" transform="translate(344.628906 0)"/>
      <use xlink:href="#ArialMT-67" transform="translate(400.244141 0)"/>
      <use xlink:href="#ArialMT-65" transform="translate(455.859375 0)"/>
      <use xlink:href="#ArialMT-20" transform="translate(511.474609 0)"/>
      <use xlink:href="#ArialMT-6f" transform="translate(539.257812 0)"/>
      <use xlink:href="#ArialMT-66" transform="translate(594.873047 0)"/>
      <use xlink:href="#ArialMT-20" transform="translate(622.65625 0)"/>
      <use xlink:href="#ArialMT-42" transform="translate(650.439453 0)"/>
      <use xlink:href="#ArialMT-75" transform="translate(717.138672 0)"/>
      <use xlink:href="#ArialMT-67" transform="translate(772.753906 0)"/>
      <use xlink:href="#ArialMT-73" transform="translate(828.369141 0)"/>
      <use xlink:href="#ArialMT-20" transform="translate(878.369141 0)"/>
      <use xlink:href="#ArialMT-54" transform="translate(904.402344 0)"/>
      <use xlink:href="#ArialMT-61" transform="translate(954.361328 0)"/>
      <use xlink:href="#ArialMT-72" transform="translate(1009.976562 0)"/>
      <use xlink:href="#ArialMT-67" transform="translate(1043.277344 0)"/>
      <use xlink:href="#ArialMT-65" transform="translate(1098.892578 0)"/>
      <use xlink:href="#ArialMT-74" transform="translate(1154.507812 0)"/>
      <use xlink:href="#ArialMT-65" transform="translate(1182.291016 0)"/>
      <use xlink:href="#ArialMT-64" transform="translate(1237.90625 0)"/>
      <use xlink:href="#ArialMT-20" transform="translate(1293.521484 0)"/>
      <use xlink:href="#ArialMT-28" transform="translate(1321.304688 0)"/>
      <use xlink:href="#ArialMT-73" transform="translate(1354.605469 0)"/>
      <use xlink:href="#ArialMT-6f" transform="translate(1404.605469 0)"/>
      <use xlink:href="#ArialMT-72" transform="translate(1460.220703 0)"/>
      <use xlink:href="#ArialMT-74" transform="translate(1493.521484 0)"/>
      <use xlink:href="#ArialMT-65" transform="translate(1521.304688 0)"/>
      <use xlink:href="#ArialMT-64" transform="translate(1576.919922 0)"/>
      <use xlink:href="#ArialMT-20" transform="translate(1632.535156 0)"/>
      <use xlink:href="#ArialMT-62" transform="translate(1660.318359 0)"/>
      <use xlink:href="#ArialMT-79" transform="translate(1715.933594 0)"/>
      <use xlink:href="#ArialMT-20" transform="translate(1765.933594 0)"/>
      <use xlink:href="#ArialMT-73" transform="translate(1793.716797 0)"/>
      <use xlink:href="#ArialMT-63" transform="translate(1843.716797 0)"/>
      <use xlink:href="#ArialMT-6f" transform="translate(1893.716797 0)"/>
      <use xlink:href="#ArialMT-72" transform="translate(1949.332031 0)"/>
      <use xlink:href="#ArialMT-65" transform="translate(1982.632812 0)"/>
      <use xlink:href="#ArialMT-29" transform="translate(2038.248047 0)"/>
     </g>
    </g>
   </g>
   <g id="matplotlib.axis_2">
    <g id="ytick_1">
     <g id="line2d_13">
      <path d="M 51.53625 448.0125 
L 609.53625 448.0125 
" clip-path="url(#p6e5e72ec29)" style="fill: none; stroke: #cccccc; stroke-width: 0.8; stroke-linecap: round"/>
     </g>
     <g id="line2d_14"/>
     <g id="text_8">
      <!-- 0% -->
      <g style="fill: #262626" transform="translate(33.583125 451.591406) scale(0.1 -0.1)">
       <use xlink:href="#ArialMT-30"/>
       <use xlink:href="#ArialMT-25" transform="translate(55.615234 0)"/>
      </g>
     </g>
    </g>
    <g id="ytick_2">
     <g id="line2d_15">
      <path d="M 51.53625 367.3725 
L 609.53625 367.3725 
" clip-path="url(#p6e5e72ec29)" style="fill: none; stroke: #cccccc; stroke-width: 0.8; stroke-linecap: round"/>
     </g>
     <g id="line2d_16"/>
     <g id="text_9">
      <!-- 20% -->
      <g style="fill: #262626" transform="translate(28.022188 370.951406) scale(0.1 -0.1)">
       <use xlink:href="#ArialMT-32"/>
       <use xlink:href="#ArialMT-30" transform="translate(55.615234 0)"/>
       <use xlink:href="#ArialMT-25" transform="translate(111.230469 0)"/>
      </g>
     </g>
    </g>
    <g id="ytick_3">
     <g id="line2d_17">
      <path d="M 51.53625 286.7325 
L 609.53625 286.7325 
" clip-path="url(#p6e5e72ec29)" style="fill: none; stroke: #cccccc; stroke-width: 0.8; stroke-linecap: round"/>
     </g>
     <g id="line2d_18"/>
     <g id="text_10">
      <!-- 40% -->
      <g style="fill: #262626" transform="translate(28.022188 290.311406) scale(0.1 -0.1)">
       <use xlink:href="#ArialMT-34"/>
       <use xlink:href="#ArialMT-30" transform="translate(55.615234 0)"/>
       <use xlink:href="#ArialMT-25" transform="translate(111.230469 0)"/>
      </g>
     </g>
    </g>
    <g id="ytick_4">
     <g id="line2d_19">
      <path d="M 51.53625 206.0925 
L 609.53625 206.0925 
" clip-path="url(#p6e5e72ec29)" style="fill: none; stroke: #cccccc; stroke-width: 0.8; stroke-linecap: round"/>
     </g>
     <g id="line2d_20"/>
     <g id="text_11">
      <!-- 60% -->
      <g style="fill: #262626" transform="translate(28.022188 209.671406) scale(0.1 -0.1)">
       <use xlink:href="#ArialMT-36"/>
       <use xlink:href="#ArialMT-30" transform="translate(55.615234 0)"/>
       <use xlink:href="#ArialMT-25" transform="translate(111.230469 0)"/>
      </g>
     </g>
    </g>
    <g id="ytick_5">
     <g id="line2d_21">
      <path d="M 51.53625 125.4525 
L 609.53625 125.4525 
" clip-path="url(#p6e5e72ec29)" style="fill: none; stroke: #cccccc; stroke-width: 0.8; stroke-linecap: round"/>
     </g>
     <g id="line2d_22"/>
     <g id="text_12">
      <!-- 80% -->
      <g style="fill: #262626" transform="translate(28.022188 129.031406) scale(0.1 -0.1)">
       <use xlink:href="#ArialMT-38"/>
       <use xlink:href="#ArialMT-30" transform="translate(55.615234 0)"/>
       <use xlink:href="#ArialMT-25" transform="translate(111.230469 0)"/>
      </g>
     </g>
    </g>
    <g id="ytick_6">
     <g id="line2d_23">
      <path d="M 51.53625 44.8125 
L 609.53625 44.8125 
" clip-path="url(#p6e5e72ec29)" style="fill: none; stroke: #cccccc; stroke-width: 0.8; stroke-linecap: round"/>
     </g>
     <g id="line2d_24"/>
     <g id="text_13">
      <!-- 100% -->
      <g style="fill: #262626" transform="translate(22.46125 48.391406) scale(0.1 -0.1)">
       <use xlink:href="#ArialMT-31"/>
       <use xlink:href="#ArialMT-30" transform="translate(55.615234 0)"/>
       <use xlink:href="#ArialMT-30" transform="translate(111.230469 0)"/>
       <use xlink:href="#ArialMT-25" transform="translate(166.845703 0)"/>
      </g>
     </g>
    </g>
    <g id="text_14">
     <!-- Percentage of "Fixed" Bugs Captured -->
     <g style="fill: #262626" transform="translate(15.935625 346.056562) rotate(-90) scale(0.12 -0.12)">
      <defs>
       <path id="ArialMT-22" d="M 450 2959 
L 294 3831 
L 294 4581 
L 934 4581 
L 934 3831 
L 794 2959 
L 450 2959 
z
M 1484 2959 
L 1331 3831 
L 1331 4581 
L 1972 4581 
L 1972 3831 
L 1822 2959 
L 1484 2959 
z
" transform="scale(0.015625)"/>
       <path id="ArialMT-46" d="M 525 0 
L 525 4581 
L 3616 4581 
L 3616 4041 
L 1131 4041 
L 1131 2622 
L 3281 2622 
L 3281 2081 
L 1131 2081 
L 1131 0 
L 525 0 
z
" transform="scale(0.015625)"/>
       <path id="ArialMT-69" d="M 425 3934 
L 425 4581 
L 988 4581 
L 988 3934 
L 425 3934 
z
M 425 0 
L 425 3319 
L 988 3319 
L 988 0 
L 425 0 
z
" transform="scale(0.015625)"/>
       <path id="ArialMT-78" d="M 47 0 
L 1259 1725 
L 138 3319 
L 841 3319 
L 1350 2541 
Q 1494 2319 1581 2169 
Q 1719 2375 1834 2534 
L 2394 3319 
L 3066 3319 
L 1919 1756 
L 3153 0 
L 2463 0 
L 1781 1031 
L 1600 1309 
L 728 0 
L 47 0 
z
" transform="scale(0.015625)"/>
       <path id="ArialMT-43" d="M 3763 1606 
L 4369 1453 
Q 4178 706 3683 314 
Q 3188 -78 2472 -78 
Q 1731 -78 1267 223 
Q 803 525 561 1097 
Q 319 1669 319 2325 
Q 319 3041 592 3573 
Q 866 4106 1370 4382 
Q 1875 4659 2481 4659 
Q 3169 4659 3637 4309 
Q 4106 3959 4291 3325 
L 3694 3184 
Q 3534 3684 3231 3912 
Q 2928 4141 2469 4141 
Q 1941 4141 1586 3887 
Q 1231 3634 1087 3207 
Q 944 2781 944 2328 
Q 944 1744 1114 1308 
Q 1284 872 1643 656 
Q 2003 441 2422 441 
Q 2931 441 3284 734 
Q 3638 1028 3763 1606 
z
" transform="scale(0.015625)"/>
       <path id="ArialMT-70" d="M 422 -1272 
L 422 3319 
L 934 3319 
L 934 2888 
Q 1116 3141 1344 3267 
Q 1572 3394 1897 3394 
Q 2322 3394 2647 3175 
Q 2972 2956 3137 2557 
Q 3303 2159 3303 1684 
Q 3303 1175 3120 767 
Q 2938 359 2589 142 
Q 2241 -75 1856 -75 
Q 1575 -75 1351 44 
Q 1128 163 984 344 
L 984 -1272 
L 422 -1272 
z
M 931 1641 
Q 931 1000 1190 694 
Q 1450 388 1819 388 
Q 2194 388 2461 705 
Q 2728 1022 2728 1688 
Q 2728 2322 2467 2637 
Q 2206 2953 1844 2953 
Q 1484 2953 1207 2617 
Q 931 2281 931 1641 
z
" transform="scale(0.015625)"/>
      </defs>
      <use xlink:href="#ArialMT-50"/>
      <use xlink:href="#ArialMT-65" transform="translate(66.699219 0)"/>
      <use xlink:href="#ArialMT-72" transform="translate(122.314453 0)"/>
      <use xlink:href="#ArialMT-63" transform="translate(155.615234 0)"/>
      <use xlink:href="#ArialMT-65" transform="translate(205.615234 0)"/>
      <use xlink:href="#ArialMT-6e" transform="translate(261.230469 0)"/>
      <use xlink:href="#ArialMT-74" transform="translate(316.845703 0)"/>
      <use xlink:href="#ArialMT-61" transform="translate(344.628906 0)"/>
      <use xlink:href="#ArialMT-67" transform="translate(400.244141 0)"/>
      <use xlink:href="#ArialMT-65" transform="translate(455.859375 0)"/>
      <use xlink:href="#ArialMT-20" transform="translate(511.474609 0)"/>
      <use xlink:href="#ArialMT-6f" transform="translate(539.257812 0)"/>
      <use xlink:href="#ArialMT-66" transform="translate(594.873047 0)"/>
      <use xlink:href="#ArialMT-20" transform="translate(622.65625 0)"/>
      <use xlink:href="#ArialMT-22" transform="translate(650.439453 0)"/>
      <use xlink:href="#ArialMT-46" transform="translate(685.9375 0)"/>
      <use xlink:href="#ArialMT-69" transform="translate(747.021484 0)"/>
      <use xlink:href="#ArialMT-78" transform="translate(769.238281 0)"/>
      <use xlink:href="#ArialMT-65" transform="translate(819.238281 0)"/>
      <use xlink:href="#ArialMT-64" transform="translate(874.853516 0)"/>
      <use xlink:href="#ArialMT-22" transform="translate(930.46875 0)"/>
      <use xlink:href="#ArialMT-20" transform="translate(965.966797 0)"/>
      <use xlink:href="#ArialMT-42" transform="translate(993.75 0)"/>
      <use xlink:href="#ArialMT-75" transform="translate(1060.449219 0)"/>
      <use xlink:href="#ArialMT-67" transform="translate(1116.064453 0)"/>
      <use xlink:href="#ArialMT-73" transform="translate(1171.679688 0)"/>
      <use xlink:href="#ArialMT-20" transform="translate(1221.679688 0)"/>
      <use xlink:href="#ArialMT-43" transform="translate(1249.462891 0)"/>
      <use xlink:href="#ArialMT-61" transform="translate(1321.679688 0)"/>
      <use xlink:href="#ArialMT-70" transform="translate(1377.294922 0)"/>
      <use xlink:href="#ArialMT-74" transform="translate(1432.910156 0)"/>
      <use xlink:href="#ArialMT-75" transform="translate(1460.693359 0)"/>
      <use xlink:href="#ArialMT-72" transform="translate(1516.308594 0)"/>
      <use xlink:href="#ArialMT-65" transform="translate(1549.609375 0)"/>
      <use xlink:href="#ArialMT-64" transform="translate(1605.224609 0)"/>
     </g>
    </g>
   </g>
   <g id="line2d_25">
    <path d="M 76.946052 448.0125 
L 81.424161 442.545776 
L 81.516493 442.487619 
L 102.291222 416.4916 
L 102.383554 416.433443 
L 112.632421 403.697139 
L 112.724753 403.638982 
L 144.579338 363.685369 
L 144.67167 363.627212 
L 155.197533 350.541968 
L 155.289866 350.483811 
L 161.060624 343.388701 
L 161.152956 343.330544 
L 178.326732 321.870743 
L 178.419064 321.812587 
L 185.020812 313.670657 
L 185.113144 313.6125 
L 190.283743 307.273426 
L 190.376075 307.215269 
L 192.499714 304.714534 
L 192.592046 304.656377 
L 194.715685 302.155641 
L 194.808018 302.097485 
L 197.854978 298.433616 
L 197.94731 298.37546 
L 200.99427 294.711591 
L 201.086602 294.653435 
L 203.718068 291.512976 
L 203.8104 291.454819 
L 209.257996 284.766805 
L 209.350328 284.708649 
L 212.951281 280.346901 
L 213.043613 280.288744 
L 217.983382 274.240453 
L 218.075715 274.182297 
L 220.984177 270.692898 
L 221.076509 270.634741 
L 226.570271 263.888571 
L 226.662603 263.830414 
L 232.525693 256.618991 
L 232.618025 256.560834 
L 236.588307 251.733833 
L 236.680639 251.675676 
L 238.019455 250.163603 
L 238.157953 250.105447 
L 241.897404 245.569229 
L 241.989736 245.511072 
L 244.667368 242.312457 
L 244.805866 242.2543 
L 247.852827 238.590432 
L 247.945159 238.532275 
L 252.238603 233.298177 
L 252.330935 233.240021 
L 253.669751 231.727948 
L 253.762083 231.669791 
L 254.50074 230.913755 
L 254.593072 230.855598 
L 256.670545 228.413019 
L 256.762877 228.354863 
L 258.932682 225.79597 
L 259.025015 225.737814 
L 262.856798 221.085282 
L 262.94913 221.027126 
L 267.104076 215.967498 
L 267.196408 215.909341 
L 270.197202 212.303629 
L 270.289535 212.245473 
L 273.890488 207.883725 
L 273.98282 207.825568 
L 275.413968 206.197182 
L 275.5063 206.139025 
L 278.0916 203.056723 
L 278.230098 202.998567 
L 280.769231 199.974421 
L 280.861564 199.916265 
L 282.569708 197.938939 
L 282.66204 197.880782 
L 285.108842 194.97295 
L 285.201174 194.914793 
L 287.140148 192.646684 
L 287.232481 192.588528 
L 287.647975 192.239588 
L 287.740307 192.181431 
L 288.894459 190.901985 
L 288.986791 190.843828 
L 290.648769 188.924659 
L 290.741102 188.866503 
L 293.234069 185.900514 
L 293.372567 185.842357 
L 295.173044 183.748718 
L 295.311542 183.690561 
L 296.788856 182.004019 
L 296.881188 181.945862 
L 298.543167 180.026693 
L 298.635499 179.968536 
L 299.420322 179.154343 
L 299.512654 179.096187 
L 301.590127 176.653608 
L 301.682459 176.595451 
L 303.529102 174.443655 
L 303.621434 174.385499 
L 304.175427 173.862089 
L 304.267759 173.803932 
L 306.668394 170.954257 
L 306.806892 170.8961 
L 307.822546 169.791124 
L 307.914878 169.732967 
L 309.761521 167.581172 
L 309.900019 167.523015 
L 311.05417 166.243569 
L 311.146503 166.185412 
L 312.069824 165.196749 
L 312.162156 165.138593 
L 312.808481 164.49887 
L 312.900813 164.440713 
L 313.63947 163.684677 
L 313.777968 163.62652 
L 315.578445 161.532881 
L 315.670777 161.474724 
L 316.317102 160.835001 
L 316.4556 160.776844 
L 317.609752 159.497398 
L 317.794416 159.439242 
L 319.087066 157.985326 
L 319.179398 157.927169 
L 320.610546 156.298783 
L 320.702878 156.240626 
L 322.041694 154.728554 
L 322.134026 154.670397 
L 322.918849 153.856204 
L 323.103513 153.798047 
L 324.026835 152.809384 
L 324.119167 152.751228 
L 324.534661 152.402288 
L 324.626994 152.344131 
L 326.288972 150.424962 
L 326.381304 150.366805 
L 326.981463 149.785239 
L 327.073795 149.727082 
L 328.828106 147.6916 
L 328.966604 147.633443 
L 329.520597 147.110034 
L 329.751427 147.051877 
L 331.136409 145.481648 
L 331.274907 145.423491 
L 332.29056 144.318515 
L 332.382893 144.260358 
L 332.798387 143.911418 
L 332.890719 143.853262 
L 333.952539 142.690129 
L 334.137203 142.631972 
L 335.014358 141.701466 
L 335.10669 141.643309 
L 335.93768 140.77096 
L 336.030012 140.712803 
L 336.307008 140.538333 
L 336.39934 140.480176 
L 337.368828 139.433357 
L 337.46116 139.3752 
L 338.292149 138.50285 
L 338.384481 138.444694 
L 339.677131 136.990778 
L 339.769463 136.932621 
L 340.554286 136.118428 
L 340.692784 136.060272 
L 341.754604 134.897139 
L 341.893102 134.838982 
L 342.770257 133.908476 
L 342.908756 133.850319 
L 343.832077 132.861656 
L 343.924409 132.8035 
L 344.663066 132.047463 
L 344.755398 131.989307 
L 345.078561 131.75668 
L 345.263225 131.698523 
L 345.724886 131.291427 
L 345.863384 131.23327 
L 346.417377 130.70986 
L 346.602041 130.651704 
L 347.617694 129.546728 
L 347.756192 129.488571 
L 348.679514 128.499908 
L 348.771846 128.441751 
L 349.279673 127.976498 
L 349.372005 127.918342 
L 349.833665 127.511245 
L 349.925997 127.453088 
L 350.526156 126.871522 
L 350.664655 126.813365 
L 351.495644 125.941016 
L 351.634142 125.882859 
L 352.418965 125.068666 
L 352.649795 125.01051 
L 353.29612 124.370786 
L 353.388452 124.31263 
L 354.58877 122.975027 
L 354.727268 122.91687 
L 355.512091 122.102677 
L 355.65059 122.044521 
L 356.527745 121.114014 
L 356.666243 121.055858 
L 357.127904 120.648761 
L 357.266402 120.590605 
L 357.958893 119.892725 
L 358.051225 119.834568 
L 359.159211 118.613279 
L 359.297709 118.555122 
L 359.9902 117.857243 
L 360.082532 117.799086 
L 360.359528 117.624616 
L 360.636525 117.566459 
L 361.144351 117.101206 
L 361.236684 117.04305 
L 361.51368 116.86858 
L 361.652178 116.810423 
L 362.113839 116.403326 
L 362.206171 116.34517 
L 362.713998 115.879917 
L 362.80633 115.82176 
L 363.729651 114.833097 
L 363.914315 114.774941 
L 365.206965 113.321024 
L 365.437795 113.262868 
L 366.176453 112.506831 
L 366.407283 112.448675 
L 366.730445 112.216048 
L 366.91511 112.157892 
L 367.469102 111.634482 
L 367.561434 111.576325 
L 368.484756 110.587662 
L 368.761752 110.529506 
L 370.285232 108.784806 
L 370.377564 108.72665 
L 370.977723 108.145083 
L 371.070055 108.086927 
L 371.393218 107.8543 
L 371.531716 107.796143 
L 372.224207 107.098264 
L 372.316539 107.040107 
L 372.639702 106.807481 
L 372.7782 106.749324 
L 373.193694 106.400384 
L 373.424525 106.342227 
L 373.840019 105.993288 
L 373.932352 105.935131 
L 374.209348 105.760661 
L 374.394012 105.702504 
L 374.809507 105.353564 
L 374.948005 105.295408 
L 375.178835 105.179095 
L 375.271167 105.120938 
L 375.82516 104.597528 
L 376.009824 104.539371 
L 376.471485 104.132275 
L 376.840814 104.074118 
L 377.163976 103.841492 
L 377.256308 103.783335 
L 377.948799 103.085455 
L 378.041131 103.027299 
L 378.548958 102.562046 
L 378.64129 102.503889 
L 379.056785 102.154949 
L 379.195283 102.096793 
L 379.610778 101.747853 
L 379.70311 101.689696 
L 380.210936 101.224443 
L 380.349435 101.166286 
L 380.857261 100.701033 
L 380.99576 100.642876 
L 381.734417 99.88684 
L 381.965247 99.828683 
L 382.380742 99.479744 
L 382.473074 99.421587 
L 383.165565 98.723707 
L 383.257897 98.665551 
L 383.581059 98.432924 
L 383.765723 98.374767 
L 384.088886 98.142141 
L 384.181218 98.083984 
L 384.458214 97.909514 
L 384.781377 97.851358 
L 385.33537 97.327948 
L 385.5662 97.269791 
L 386.074027 96.804538 
L 386.258691 96.746381 
L 386.489521 96.630068 
L 386.674186 96.571912 
L 387.043514 96.281128 
L 387.135846 96.222972 
L 387.736005 95.641405 
L 387.920669 95.583249 
L 388.197666 95.408779 
L 388.336164 95.350622 
L 388.566994 95.234309 
L 388.705492 95.176152 
L 389.028655 94.943526 
L 389.167153 94.885369 
L 389.582648 94.536429 
L 389.721146 94.478272 
L 390.228973 94.013019 
L 390.367471 93.954863 
L 390.875298 93.489609 
L 391.013796 93.431453 
L 391.383124 93.14067 
L 391.567789 93.082513 
L 391.937117 92.79173 
L 392.121781 92.733573 
L 392.352612 92.61726 
L 392.537276 92.559103 
L 392.906604 92.26832 
L 393.045103 92.210163 
L 393.506763 91.803067 
L 393.599095 91.74491 
L 394.060756 91.337814 
L 394.199254 91.279657 
L 394.753247 90.756247 
L 394.845579 90.698091 
L 395.261074 90.349151 
L 395.399572 90.290994 
L 396.184395 89.476801 
L 396.276727 89.418645 
L 396.59989 89.186018 
L 396.784554 89.127861 
L 397.384713 88.546295 
L 397.707875 88.488138 
L 398.077204 88.197355 
L 398.261868 88.139198 
L 398.631197 87.848415 
L 398.815861 87.790259 
L 399.554518 87.034222 
L 399.64685 86.976066 
L 400.247009 86.394499 
L 400.339341 86.336342 
L 400.754836 85.987403 
L 400.893334 85.929246 
L 401.262662 85.638463 
L 401.354994 85.580306 
L 401.631991 85.405836 
L 401.908987 85.34768 
L 402.416814 84.882426 
L 402.601478 84.82427 
L 403.109305 84.359017 
L 403.201637 84.30086 
L 403.524799 84.068233 
L 403.617132 84.010077 
L 404.032626 83.661137 
L 404.124958 83.60298 
L 404.632785 83.137727 
L 404.863615 83.079571 
L 405.186778 82.846944 
L 405.27911 82.788787 
L 405.740771 82.381691 
L 405.833103 82.323534 
L 406.340929 81.858281 
L 406.57176 81.800124 
L 406.756424 81.741968 
L 407.03342 81.683811 
L 407.448915 81.334871 
L 407.772078 81.276715 
L 408.002908 81.160401 
L 408.279904 81.102245 
L 408.603067 80.869618 
L 408.695399 80.811461 
L 408.972395 80.636992 
L 409.064727 80.578835 
L 409.61872 80.055425 
L 409.757218 79.997268 
L 410.218879 79.590172 
L 410.403543 79.532015 
L 410.772872 79.241232 
L 410.865204 79.183076 
L 411.049868 79.124919 
L 411.465363 79.066762 
L 411.696193 78.950449 
L 411.834691 78.892292 
L 412.296352 78.485196 
L 412.388684 78.427039 
L 413.127341 77.671003 
L 413.312005 77.612846 
L 413.773666 77.20575 
L 413.912164 77.147593 
L 414.927818 76.042617 
L 415.02015 75.98446 
L 415.389478 75.693677 
L 415.48181 75.63552 
L 415.851139 75.344737 
L 416.081969 75.28658 
L 416.358966 75.112111 
L 416.54363 75.053954 
L 416.820626 74.879484 
L 416.959125 74.821327 
L 417.282287 74.588701 
L 417.420785 74.530544 
L 417.790114 74.239761 
L 417.882446 74.181604 
L 418.159442 74.007134 
L 418.251774 73.948978 
L 418.667269 73.600038 
L 418.805767 73.541881 
L 419.544424 72.785845 
L 419.729088 72.727688 
L 419.913753 72.669532 
L 420.190749 72.611375 
L 420.606244 72.262435 
L 420.837074 72.204278 
L 421.206403 71.913495 
L 421.529565 71.855339 
L 421.806561 71.680869 
L 422.129724 71.622712 
L 422.545218 71.273772 
L 422.683717 71.215616 
L 422.960713 71.041146 
L 423.283876 70.982989 
L 423.791702 70.517736 
L 424.161031 70.459579 
L 424.391861 70.343266 
L 424.530359 70.285109 
L 424.76119 70.168796 
L 424.99202 70.110639 
L 425.176684 70.052483 
L 425.453681 69.994326 
L 425.730677 69.819856 
L 425.869175 69.761699 
L 426.238504 69.470916 
L 426.423168 69.41276 
L 426.838663 69.06382 
L 427.115659 69.005663 
L 427.300323 68.947506 
L 427.531154 68.88935 
L 427.854316 68.656723 
L 428.408309 68.598567 
L 428.823803 68.249627 
L 428.962302 68.19147 
L 429.56246 67.609904 
L 429.700959 67.551747 
L 430.070287 67.260964 
L 430.208785 67.202807 
L 430.578114 66.912024 
L 430.716612 66.853867 
L 430.947442 66.737554 
L 431.224439 66.679397 
L 431.501435 66.504928 
L 431.639933 66.446771 
L 431.963096 66.214144 
L 432.101594 66.155988 
L 432.470923 65.865204 
L 432.563255 65.807048 
L 432.840251 65.632578 
L 433.117247 65.574421 
L 433.625074 65.109168 
L 433.855904 65.051011 
L 434.040569 64.992855 
L 434.271399 64.934698 
L 434.502229 64.818385 
L 434.640728 64.760228 
L 434.825392 64.702072 
L 435.102388 64.643915 
L 435.333219 64.527602 
L 435.610215 64.469445 
L 435.841045 64.353132 
L 436.25654 64.294975 
L 436.625868 64.004192 
L 437.133695 63.946035 
L 437.364525 63.829722 
L 437.503024 63.771565 
L 437.872352 63.480782 
L 438.703341 63.422625 
L 438.888006 63.364469 
L 439.257334 63.306312 
L 439.488164 63.189999 
L 439.857493 63.131842 
L 440.042157 63.073686 
L 440.319154 63.015529 
L 440.780814 62.608432 
L 441.242475 62.550276 
L 441.427139 62.492119 
L 441.842634 62.433963 
L 442.11963 62.259493 
L 442.535125 62.201336 
L 442.719789 62.143179 
L 443.135284 62.085023 
L 443.366114 61.968709 
L 443.689276 61.910553 
L 443.873941 61.852396 
L 444.058605 61.79424 
L 444.243269 61.736083 
L 444.612598 61.677926 
L 444.797262 61.61977 
L 445.028092 61.561613 
L 445.397421 61.27083 
L 445.628251 61.212673 
L 445.812915 61.154516 
L 445.99758 61.09636 
L 446.274576 60.92189 
L 446.967067 60.863733 
L 447.197897 60.74742 
L 447.382562 60.689263 
L 447.75189 60.39848 
L 448.259717 60.340323 
L 448.536713 60.165854 
L 449.090706 60.107697 
L 449.460035 59.816914 
L 449.690865 59.758757 
L 449.875529 59.7006 
L 450.198692 59.642444 
L 450.56802 59.351661 
L 450.798851 59.293504 
L 450.983515 59.235347 
L 451.075847 59.177191 
L 451.445175 58.886407 
L 451.583674 58.828251 
L 451.814504 58.711937 
L 452.045334 58.653781 
L 452.276165 58.537468 
L 452.691659 58.479311 
L 452.876323 58.421154 
L 453.568814 58.362998 
L 453.753479 58.304841 
L 453.938143 58.246684 
L 454.168973 58.130371 
L 454.307471 58.072214 
L 454.538302 57.955901 
L 454.861464 57.897744 
L 455.092295 57.781431 
L 455.415457 57.723275 
L 455.646287 57.606961 
L 456.015616 57.548805 
L 456.292612 57.374335 
L 456.985103 57.316178 
L 457.215934 57.199865 
L 458.046923 57.141708 
L 458.277753 57.025395 
L 458.600916 56.967238 
L 458.78558 56.909082 
L 459.108742 56.850925 
L 459.339573 56.734612 
L 459.708901 56.676455 
L 460.032064 56.443828 
L 461.694042 56.385672 
L 461.878706 56.327515 
L 462.155703 56.269359 
L 462.340367 56.211202 
L 462.802028 56.153045 
L 463.032858 56.036732 
L 463.217522 55.978575 
L 463.494519 55.804105 
L 464.140843 55.745949 
L 464.325508 55.687792 
L 464.8795 55.629635 
L 465.156497 55.455166 
L 465.387327 55.397009 
L 465.664324 55.222539 
L 465.848988 55.164382 
L 466.033652 55.106226 
L 466.726143 55.048069 
L 466.910807 54.989912 
L 467.23397 54.931756 
L 467.418634 54.873599 
L 467.834129 54.815442 
L 468.018793 54.757286 
L 468.75745 54.699129 
L 469.034446 54.524659 
L 469.680771 54.466503 
L 469.957768 54.292033 
L 470.51176 54.233876 
L 470.834923 54.001249 
L 471.111919 53.943093 
L 471.296584 53.884936 
L 471.435082 53.82678 
L 471.619746 53.768623 
L 471.896742 53.710466 
L 472.081407 53.65231 
L 472.173739 53.594153 
L 472.404569 53.47784 
L 473.420223 53.419683 
L 473.651053 53.30337 
L 474.666706 53.245213 
L 474.897537 53.1289 
L 475.266865 53.070743 
L 475.543862 52.896273 
L 475.867024 52.838117 
L 476.14402 52.663647 
L 476.559515 52.60549 
L 476.744179 52.547333 
L 477.482836 52.489177 
L 477.713667 52.372863 
L 478.267659 52.314707 
L 478.452324 52.25655 
L 478.96015 52.198394 
L 479.144815 52.140237 
L 480.298966 52.08208 
L 480.529797 51.965767 
L 480.622129 51.90761 
L 480.806793 51.849454 
L 480.945291 51.791297 
L 481.129956 51.73314 
L 481.591616 51.674984 
L 481.822447 51.55867 
L 482.191775 51.500514 
L 482.376439 51.442357 
L 483.161262 51.384201 
L 483.345927 51.326044 
L 483.715255 51.267887 
L 483.946086 51.151574 
L 484.546244 51.093417 
L 484.823241 50.918947 
L 485.65423 50.860791 
L 485.838894 50.802634 
L 487.500873 50.744477 
L 487.685537 50.686321 
L 488.008699 50.628164 
L 488.23953 50.511851 
L 489.716844 50.453694 
L 489.99384 50.279224 
L 490.317003 50.221068 
L 490.501667 50.162911 
L 491.009494 50.104754 
L 491.194158 50.046598 
L 491.609652 49.988441 
L 491.794317 49.930285 
L 493.594793 49.872128 
L 493.825624 49.755815 
L 494.748945 49.697658 
L 494.979775 49.581345 
L 495.164439 49.523188 
L 495.349104 49.465031 
L 496.180093 49.406875 
L 496.364757 49.348718 
L 496.964916 49.290561 
L 497.14958 49.232405 
L 498.2114 49.174248 
L 498.396064 49.116092 
L 498.765393 49.057935 
L 498.950057 48.999778 
L 499.457884 48.941622 
L 499.688714 48.825308 
L 499.96571 48.767152 
L 500.150374 48.708995 
L 500.658201 48.650838 
L 500.842865 48.592682 
L 502.643342 48.534525 
L 502.874172 48.418212 
L 503.751328 48.360055 
L 503.935992 48.301899 
L 504.674649 48.243742 
L 504.859313 48.185585 
L 506.567458 48.127429 
L 506.798288 48.011115 
L 507.444613 47.952959 
L 507.629277 47.894802 
L 508.644931 47.836645 
L 508.875761 47.720332 
L 510.306909 47.662175 
L 510.491573 47.604019 
L 512.061219 47.545862 
L 512.29205 47.429549 
L 512.430548 47.371392 
L 512.661378 47.255079 
L 514.738851 47.196922 
L 514.923515 47.138766 
L 523.048743 47.080609 
L 523.233407 47.022452 
L 524.895386 46.964296 
L 525.126216 46.847982 
L 526.83436 46.789826 
L 527.019025 46.731669 
L 528.542505 46.673513 
L 528.773335 46.557199 
L 530.435313 46.499043 
L 530.666144 46.382729 
L 532.789783 46.324573 
L 532.974447 46.266416 
L 533.9901 46.208259 
L 534.174765 46.150103 
L 536.760064 46.091946 
L 536.944729 46.033789 
L 540.91501 45.975633 
L 541.099675 45.917476 
L 542.530823 45.85932 
L 542.715487 45.801163 
L 547.886086 45.743006 
L 548.07075 45.68485 
L 550.609884 45.626693 
L 550.794548 45.568536 
L 558.688946 45.51038 
L 558.87361 45.452223 
L 563.628715 45.394066 
L 563.813379 45.33591 
L 566.721841 45.277753 
L 566.906505 45.219596 
L 568.937812 45.16144 
L 569.122476 45.103283 
L 572.815762 45.045127 
L 573.000426 44.98697 
L 578.771184 44.928813 
L 578.955848 44.870657 
L 584.172614 44.8125 
L 584.172614 44.8125 
" clip-path="url(#p6e5e72ec29)" style="fill: none; stroke: #2c7bb6; stroke-width: 2; stroke-linecap: round"/>
   </g>
   <g id="line2d_26">
    <path d="M 76.899886 448.0125 
L 584.172614 44.8125 
" clip-path="url(#p6e5e72ec29)" style="fill: none; stroke-dasharray: 5.55,2.4; stroke-dashoffset: 0; stroke: #000000; stroke-width: 1.5"/>
   </g>
   <g id="line2d_27">
    <defs>
     <path id="mee58b3f6ed" d="M 0 3 
C 0.795609 3 1.55874 2.683901 2.12132 2.12132 
C 2.683901 1.55874 3 0.795609 3 0 
C 3 -0.795609 2.683901 -1.55874 2.12132 -2.12132 
C 1.55874 -2.683901 0.795609 -3 0 -3 
C -0.795609 -3 -1.55874 -2.683901 -2.12132 -2.12132 
C -2.683901 -1.55874 -3 -0.795609 -3 0 
C -3 0.795609 -2.683901 1.55874 -2.12132 2.12132 
C -1.55874 2.683901 -0.795609 3 0 3 
z
" style="stroke: #ff0000"/>
    </defs>
    <g clip-path="url(#p6e5e72ec29)">
     <use xlink:href="#mee58b3f6ed" x="178.354432" y="321.870743" style="fill: #ff0000; stroke: #ff0000"/>
    </g>
   </g>
   <g id="patch_3">
    <path d="M 51.53625 468.1725 
L 51.53625 24.6525 
" style="fill: none; stroke: #cccccc; stroke-linejoin: miter; stroke-linecap: square"/>
   </g>
   <g id="patch_4">
    <path d="M 609.53625 468.1725 
L 609.53625 24.6525 
" style="fill: none; stroke: #cccccc; stroke-linejoin: miter; stroke-linecap: square"/>
   </g>
   <g id="patch_5">
    <path d="M 51.53625 468.1725 
L 609.53625 468.1725 
" style="fill: none; stroke: #cccccc; stroke-linejoin: miter; stroke-linecap: square"/>
   </g>
   <g id="patch_6">
    <path d="M 51.53625 24.6525 
L 609.53625 24.6525 
" style="fill: none; stroke: #cccccc; stroke-linejoin: miter; stroke-linecap: square"/>
   </g>
   <g id="patch_7">
    <path d="M 199.045701 357.400688 
Q 192.200603 345.968639 185.355505 334.53659 
L 182.352644 336.334594 
Q 180.987119 330.160818 179.621595 323.987042 
Q 184.418961 328.105956 189.216327 332.224869 
L 186.213466 334.022874 
Q 193.058563 345.454923 199.903661 356.886972 
L 199.045701 357.400688 
z
" style="stroke: #000000; stroke-linecap: round"/>
   </g>
   <g id="text_15">
    <g id="patch_8">
     <path d="M 203.718068 389.338243 
L 319.896193 389.338243 
Q 324.896193 389.338243 324.896193 384.338243 
L 324.896193 364.113556 
Q 324.896193 359.113556 319.896193 359.113556 
L 203.718068 359.113556 
Q 198.718068 359.113556 198.718068 364.113556 
L 198.718068 384.338243 
Q 198.718068 389.338243 203.718068 389.338243 
z
" style="fill: #ffff00; opacity: 0.6; stroke: #000000; stroke-linejoin: miter"/>
    </g>
    <!-- Targeting top 20% of bugs -->
    <g style="fill: #262626" transform="translate(203.718068 371.510431) scale(0.1 -0.1)">
     <use xlink:href="#ArialMT-54"/>
     <use xlink:href="#ArialMT-61" transform="translate(49.958984 0)"/>
     <use xlink:href="#ArialMT-72" transform="translate(105.574219 0)"/>
     <use xlink:href="#ArialMT-67" transform="translate(138.875 0)"/>
     <use xlink:href="#ArialMT-65" transform="translate(194.490234 0)"/>
     <use xlink:href="#ArialMT-74" transform="translate(250.105469 0)"/>
     <use xlink:href="#ArialMT-69" transform="translate(277.888672 0)"/>
     <use xlink:href="#ArialMT-6e" transform="translate(300.105469 0)"/>
     <use xlink:href="#ArialMT-67" transform="translate(355.720703 0)"/>
     <use xlink:href="#ArialMT-20" transform="translate(411.335938 0)"/>
     <use xlink:href="#ArialMT-74" transform="translate(439.119141 0)"/>
     <use xlink:href="#ArialMT-6f" transform="translate(466.902344 0)"/>
     <use xlink:href="#ArialMT-70" transform="translate(522.517578 0)"/>
     <use xlink:href="#ArialMT-20" transform="translate(578.132812 0)"/>
     <use xlink:href="#ArialMT-32" transform="translate(605.916016 0)"/>
     <use xlink:href="#ArialMT-30" transform="translate(661.53125 0)"/>
     <use xlink:href="#ArialMT-25" transform="translate(717.146484 0)"/>
     <use xlink:href="#ArialMT-20" transform="translate(806.0625 0)"/>
     <use xlink:href="#ArialMT-6f" transform="translate(833.845703 0)"/>
     <use xlink:href="#ArialMT-66" transform="translate(889.460938 0)"/>
     <use xlink:href="#ArialMT-20" transform="translate(917.244141 0)"/>
     <use xlink:href="#ArialMT-62" transform="translate(945.027344 0)"/>
     <use xlink:href="#ArialMT-75" transform="translate(1000.642578 0)"/>
     <use xlink:href="#ArialMT-67" transform="translate(1056.257812 0)"/>
     <use xlink:href="#ArialMT-73" transform="translate(1111.873047 0)"/>
    </g>
    <!-- captures 31% of all fixes -->
    <g style="fill: #262626" transform="translate(203.718068 382.350743) scale(0.1 -0.1)">
     <defs>
      <path id="ArialMT-33" d="M 269 1209 
L 831 1284 
Q 928 806 1161 595 
Q 1394 384 1728 384 
Q 2125 384 2398 659 
Q 2672 934 2672 1341 
Q 2672 1728 2419 1979 
Q 2166 2231 1775 2231 
Q 1616 2231 1378 2169 
L 1441 2663 
Q 1497 2656 1531 2656 
Q 1891 2656 2178 2843 
Q 2466 3031 2466 3422 
Q 2466 3731 2256 3934 
Q 2047 4138 1716 4138 
Q 1388 4138 1169 3931 
Q 950 3725 888 3313 
L 325 3413 
Q 428 3978 793 4289 
Q 1159 4600 1703 4600 
Q 2078 4600 2393 4439 
Q 2709 4278 2876 4000 
Q 3044 3722 3044 3409 
Q 3044 3113 2884 2869 
Q 2725 2625 2413 2481 
Q 2819 2388 3044 2092 
Q 3269 1797 3269 1353 
Q 3269 753 2831 336 
Q 2394 -81 1725 -81 
Q 1122 -81 723 278 
Q 325 638 269 1209 
z
" transform="scale(0.015625)"/>
      <path id="ArialMT-6c" d="M 409 0 
L 409 4581 
L 972 4581 
L 972 0 
L 409 0 
z
" transform="scale(0.015625)"/>
     </defs>
     <use xlink:href="#ArialMT-63"/>
     <use xlink:href="#ArialMT-61" transform="translate(50 0)"/>
     <use xlink:href="#ArialMT-70" transform="translate(105.615234 0)"/>
     <use xlink:href="#ArialMT-74" transform="translate(161.230469 0)"/>
     <use xlink:href="#ArialMT-75" transform="translate(189.013672 0)"/>
     <use xlink:href="#ArialMT-72" transform="translate(244.628906 0)"/>
     <use xlink:href="#ArialMT-65" transform="translate(277.929688 0)"/>
     <use xlink:href="#ArialMT-73" transform="translate(333.544922 0)"/>
     <use xlink:href="#ArialMT-20" transform="translate(383.544922 0)"/>
     <use xlink:href="#ArialMT-33" transform="translate(411.328125 0)"/>
     <use xlink:href="#ArialMT-31" transform="translate(466.943359 0)"/>
     <use xlink:href="#ArialMT-25" transform="translate(522.558594 0)"/>
     <use xlink:href="#ArialMT-20" transform="translate(611.474609 0)"/>
     <use xlink:href="#ArialMT-6f" transform="translate(639.257812 0)"/>
     <use xlink:href="#ArialMT-66" transform="translate(694.873047 0)"/>
     <use xlink:href="#ArialMT-20" transform="translate(722.65625 0)"/>
     <use xlink:href="#ArialMT-61" transform="translate(750.439453 0)"/>
     <use xlink:href="#ArialMT-6c" transform="translate(806.054688 0)"/>
     <use xlink:href="#ArialMT-6c" transform="translate(828.271484 0)"/>
     <use xlink:href="#ArialMT-20" transform="translate(850.488281 0)"/>
     <use xlink:href="#ArialMT-66" transform="translate(878.271484 0)"/>
     <use xlink:href="#ArialMT-69" transform="translate(906.054688 0)"/>
     <use xlink:href="#ArialMT-78" transform="translate(928.271484 0)"/>
     <use xlink:href="#ArialMT-65" transform="translate(978.271484 0)"/>
     <use xlink:href="#ArialMT-73" transform="translate(1033.886719 0)"/>
    </g>
   </g>
   <g id="text_16">
    <!-- Cumulative Gains Chart -->
    <g style="fill: #262626" transform="translate(239.85375 18.6525) scale(0.16 -0.16)">
     <defs>
      <path id="Arial-BoldMT-43" d="M 3397 1684 
L 4294 1400 
Q 4088 650 3608 286 
Q 3128 -78 2391 -78 
Q 1478 -78 890 545 
Q 303 1169 303 2250 
Q 303 3394 893 4026 
Q 1484 4659 2447 4659 
Q 3288 4659 3813 4163 
Q 4125 3869 4281 3319 
L 3366 3100 
Q 3284 3456 3026 3662 
Q 2769 3869 2400 3869 
Q 1891 3869 1573 3503 
Q 1256 3138 1256 2319 
Q 1256 1450 1568 1081 
Q 1881 713 2381 713 
Q 2750 713 3015 947 
Q 3281 1181 3397 1684 
z
" transform="scale(0.015625)"/>
      <path id="Arial-BoldMT-75" d="M 2644 0 
L 2644 497 
Q 2463 231 2167 78 
Q 1872 -75 1544 -75 
Q 1209 -75 943 72 
Q 678 219 559 484 
Q 441 750 441 1219 
L 441 3319 
L 1319 3319 
L 1319 1794 
Q 1319 1094 1367 936 
Q 1416 778 1544 686 
Q 1672 594 1869 594 
Q 2094 594 2272 717 
Q 2450 841 2515 1023 
Q 2581 1206 2581 1919 
L 2581 3319 
L 3459 3319 
L 3459 0 
L 2644 0 
z
" transform="scale(0.015625)"/>
      <path id="Arial-BoldMT-6d" d="M 394 3319 
L 1203 3319 
L 1203 2866 
Q 1638 3394 2238 3394 
Q 2556 3394 2790 3262 
Q 3025 3131 3175 2866 
Q 3394 3131 3647 3262 
Q 3900 3394 4188 3394 
Q 4553 3394 4806 3245 
Q 5059 3097 5184 2809 
Q 5275 2597 5275 2122 
L 5275 0 
L 4397 0 
L 4397 1897 
Q 4397 2391 4306 2534 
Q 4184 2722 3931 2722 
Q 3747 2722 3584 2609 
Q 3422 2497 3350 2280 
Q 3278 2063 3278 1594 
L 3278 0 
L 2400 0 
L 2400 1819 
Q 2400 2303 2353 2443 
Q 2306 2584 2207 2653 
Q 2109 2722 1941 2722 
Q 1738 2722 1575 2612 
Q 1413 2503 1342 2297 
Q 1272 2091 1272 1613 
L 1272 0 
L 394 0 
L 394 3319 
z
" transform="scale(0.015625)"/>
      <path id="Arial-BoldMT-6c" d="M 459 0 
L 459 4581 
L 1338 4581 
L 1338 0 
L 459 0 
z
" transform="scale(0.015625)"/>
      <path id="Arial-BoldMT-61" d="M 1116 2306 
L 319 2450 
Q 453 2931 781 3162 
Q 1109 3394 1756 3394 
Q 2344 3394 2631 3255 
Q 2919 3116 3036 2902 
Q 3153 2688 3153 2116 
L 3144 1091 
Q 3144 653 3186 445 
Q 3228 238 3344 0 
L 2475 0 
Q 2441 88 2391 259 
Q 2369 338 2359 363 
Q 2134 144 1878 34 
Q 1622 -75 1331 -75 
Q 819 -75 523 203 
Q 228 481 228 906 
Q 228 1188 362 1408 
Q 497 1628 739 1745 
Q 981 1863 1438 1950 
Q 2053 2066 2291 2166 
L 2291 2253 
Q 2291 2506 2166 2614 
Q 2041 2722 1694 2722 
Q 1459 2722 1328 2630 
Q 1197 2538 1116 2306 
z
M 2291 1594 
Q 2122 1538 1756 1459 
Q 1391 1381 1278 1306 
Q 1106 1184 1106 997 
Q 1106 813 1243 678 
Q 1381 544 1594 544 
Q 1831 544 2047 700 
Q 2206 819 2256 991 
Q 2291 1103 2291 1419 
L 2291 1594 
z
" transform="scale(0.015625)"/>
      <path id="Arial-BoldMT-74" d="M 1981 3319 
L 1981 2619 
L 1381 2619 
L 1381 1281 
Q 1381 875 1398 808 
Q 1416 741 1477 697 
Q 1538 653 1625 653 
Q 1747 653 1978 738 
L 2053 56 
Q 1747 -75 1359 -75 
Q 1122 -75 931 4 
Q 741 84 652 211 
Q 563 338 528 553 
Q 500 706 500 1172 
L 500 2619 
L 97 2619 
L 97 3319 
L 500 3319 
L 500 3978 
L 1381 4491 
L 1381 3319 
L 1981 3319 
z
" transform="scale(0.015625)"/>
      <path id="Arial-BoldMT-69" d="M 459 3769 
L 459 4581 
L 1338 4581 
L 1338 3769 
L 459 3769 
z
M 459 0 
L 459 3319 
L 1338 3319 
L 1338 0 
L 459 0 
z
" transform="scale(0.015625)"/>
      <path id="Arial-BoldMT-76" d="M 1372 0 
L 34 3319 
L 956 3319 
L 1581 1625 
L 1763 1059 
Q 1834 1275 1853 1344 
Q 1897 1484 1947 1625 
L 2578 3319 
L 3481 3319 
L 2163 0 
L 1372 0 
z
" transform="scale(0.015625)"/>
      <path id="Arial-BoldMT-65" d="M 2381 1056 
L 3256 909 
Q 3088 428 2723 176 
Q 2359 -75 1813 -75 
Q 947 -75 531 491 
Q 203 944 203 1634 
Q 203 2459 634 2926 
Q 1066 3394 1725 3394 
Q 2466 3394 2894 2905 
Q 3322 2416 3303 1406 
L 1103 1406 
Q 1113 1016 1316 798 
Q 1519 581 1822 581 
Q 2028 581 2168 693 
Q 2309 806 2381 1056 
z
M 2431 1944 
Q 2422 2325 2234 2523 
Q 2047 2722 1778 2722 
Q 1491 2722 1303 2513 
Q 1116 2303 1119 1944 
L 2431 1944 
z
" transform="scale(0.015625)"/>
      <path id="Arial-BoldMT-20" transform="scale(0.015625)"/>
      <path id="Arial-BoldMT-47" d="M 2597 1684 
L 2597 2456 
L 4591 2456 
L 4591 631 
Q 4300 350 3748 136 
Q 3197 -78 2631 -78 
Q 1913 -78 1378 223 
Q 844 525 575 1086 
Q 306 1647 306 2306 
Q 306 3022 606 3578 
Q 906 4134 1484 4431 
Q 1925 4659 2581 4659 
Q 3434 4659 3914 4301 
Q 4394 3944 4531 3313 
L 3613 3141 
Q 3516 3478 3248 3673 
Q 2981 3869 2581 3869 
Q 1975 3869 1617 3484 
Q 1259 3100 1259 2344 
Q 1259 1528 1621 1120 
Q 1984 713 2572 713 
Q 2863 713 3155 827 
Q 3447 941 3656 1103 
L 3656 1684 
L 2597 1684 
z
" transform="scale(0.015625)"/>
      <path id="Arial-BoldMT-6e" d="M 3478 0 
L 2600 0 
L 2600 1694 
Q 2600 2231 2544 2389 
Q 2488 2547 2361 2634 
Q 2234 2722 2056 2722 
Q 1828 2722 1647 2597 
Q 1466 2472 1398 2265 
Q 1331 2059 1331 1503 
L 1331 0 
L 453 0 
L 453 3319 
L 1269 3319 
L 1269 2831 
Q 1703 3394 2363 3394 
Q 2653 3394 2893 3289 
Q 3134 3184 3257 3021 
Q 3381 2859 3429 2653 
Q 3478 2447 3478 2063 
L 3478 0 
z
" transform="scale(0.015625)"/>
      <path id="Arial-BoldMT-73" d="M 150 947 
L 1031 1081 
Q 1088 825 1259 692 
Q 1431 559 1741 559 
Q 2081 559 2253 684 
Q 2369 772 2369 919 
Q 2369 1019 2306 1084 
Q 2241 1147 2013 1200 
Q 950 1434 666 1628 
Q 272 1897 272 2375 
Q 272 2806 612 3100 
Q 953 3394 1669 3394 
Q 2350 3394 2681 3172 
Q 3013 2950 3138 2516 
L 2309 2363 
Q 2256 2556 2107 2659 
Q 1959 2763 1684 2763 
Q 1338 2763 1188 2666 
Q 1088 2597 1088 2488 
Q 1088 2394 1175 2328 
Q 1294 2241 1995 2081 
Q 2697 1922 2975 1691 
Q 3250 1456 3250 1038 
Q 3250 581 2869 253 
Q 2488 -75 1741 -75 
Q 1063 -75 667 200 
Q 272 475 150 947 
z
" transform="scale(0.015625)"/>
      <path id="Arial-BoldMT-68" d="M 1334 4581 
L 1334 2897 
Q 1759 3394 2350 3394 
Q 2653 3394 2897 3281 
Q 3141 3169 3264 2994 
Q 3388 2819 3433 2606 
Q 3478 2394 3478 1947 
L 3478 0 
L 2600 0 
L 2600 1753 
Q 2600 2275 2550 2415 
Q 2500 2556 2373 2639 
Q 2247 2722 2056 2722 
Q 1838 2722 1666 2615 
Q 1494 2509 1414 2295 
Q 1334 2081 1334 1663 
L 1334 0 
L 456 0 
L 456 4581 
L 1334 4581 
z
" transform="scale(0.015625)"/>
      <path id="Arial-BoldMT-72" d="M 1300 0 
L 422 0 
L 422 3319 
L 1238 3319 
L 1238 2847 
Q 1447 3181 1614 3287 
Q 1781 3394 1994 3394 
Q 2294 3394 2572 3228 
L 2300 2463 
Q 2078 2606 1888 2606 
Q 1703 2606 1575 2504 
Q 1447 2403 1373 2137 
Q 1300 1872 1300 1025 
L 1300 0 
z
" transform="scale(0.015625)"/>
     </defs>
     <use xlink:href="#Arial-BoldMT-43"/>
     <use xlink:href="#Arial-BoldMT-75" transform="translate(72.216797 0)"/>
     <use xlink:href="#Arial-BoldMT-6d" transform="translate(133.300781 0)"/>
     <use xlink:href="#Arial-BoldMT-75" transform="translate(222.216797 0)"/>
     <use xlink:href="#Arial-BoldMT-6c" transform="translate(283.300781 0)"/>
     <use xlink:href="#Arial-BoldMT-61" transform="translate(311.083984 0)"/>
     <use xlink:href="#Arial-BoldMT-74" transform="translate(366.699219 0)"/>
     <use xlink:href="#Arial-BoldMT-69" transform="translate(400 0)"/>
     <use xlink:href="#Arial-BoldMT-76" transform="translate(427.783203 0)"/>
     <use xlink:href="#Arial-BoldMT-65" transform="translate(483.398438 0)"/>
     <use xlink:href="#Arial-BoldMT-20" transform="translate(539.013672 0)"/>
     <use xlink:href="#Arial-BoldMT-47" transform="translate(566.796875 0)"/>
     <use xlink:href="#Arial-BoldMT-61" transform="translate(644.580078 0)"/>
     <use xlink:href="#Arial-BoldMT-69" transform="translate(700.195312 0)"/>
     <use xlink:href="#Arial-BoldMT-6e" transform="translate(727.978516 0)"/>
     <use xlink:href="#Arial-BoldMT-73" transform="translate(789.0625 0)"/>
     <use xlink:href="#Arial-BoldMT-20" transform="translate(844.677734 0)"/>
     <use xlink:href="#Arial-BoldMT-43" transform="translate(872.460938 0)"/>
     <use xlink:href="#Arial-BoldMT-68" transform="translate(944.677734 0)"/>
     <use xlink:href="#Arial-BoldMT-61" transform="translate(1005.761719 0)"/>
     <use xlink:href="#Arial-BoldMT-72" transform="translate(1061.376953 0)"/>
     <use xlink:href="#Arial-BoldMT-74" transform="translate(1100.292969 0)"/>
    </g>
   </g>
   <g id="legend_1">
    <g id="line2d_28">
     <path d="M 62.33625 39.841875 
L 74.33625 39.841875 
L 86.33625 39.841875 
" style="fill: none; stroke: #2c7bb6; stroke-width: 2; stroke-linecap: round"/>
    </g>
    <g id="text_17">
     <!-- Model Gains -->
     <g style="fill: #262626" transform="translate(95.93625 44.041875) scale(0.12 -0.12)">
      <defs>
       <path id="ArialMT-4d" d="M 475 0 
L 475 4581 
L 1388 4581 
L 2472 1338 
Q 2622 884 2691 659 
Q 2769 909 2934 1394 
L 4031 4581 
L 4847 4581 
L 4847 0 
L 4263 0 
L 4263 3834 
L 2931 0 
L 2384 0 
L 1059 3900 
L 1059 0 
L 475 0 
z
" transform="scale(0.015625)"/>
       <path id="ArialMT-47" d="M 2638 1797 
L 2638 2334 
L 4578 2338 
L 4578 638 
Q 4131 281 3656 101 
Q 3181 -78 2681 -78 
Q 2006 -78 1454 211 
Q 903 500 622 1047 
Q 341 1594 341 2269 
Q 341 2938 620 3517 
Q 900 4097 1425 4378 
Q 1950 4659 2634 4659 
Q 3131 4659 3532 4498 
Q 3934 4338 4162 4050 
Q 4391 3763 4509 3300 
L 3963 3150 
Q 3859 3500 3706 3700 
Q 3553 3900 3268 4020 
Q 2984 4141 2638 4141 
Q 2222 4141 1919 4014 
Q 1616 3888 1430 3681 
Q 1244 3475 1141 3228 
Q 966 2803 966 2306 
Q 966 1694 1177 1281 
Q 1388 869 1791 669 
Q 2194 469 2647 469 
Q 3041 469 3416 620 
Q 3791 772 3984 944 
L 3984 1797 
L 2638 1797 
z
" transform="scale(0.015625)"/>
      </defs>
      <use xlink:href="#ArialMT-4d"/>
      <use xlink:href="#ArialMT-6f" transform="translate(83.300781 0)"/>
      <use xlink:href="#ArialMT-64" transform="translate(138.916016 0)"/>
      <use xlink:href="#ArialMT-65" transform="translate(194.53125 0)"/>
      <use xlink:href="#ArialMT-6c" transform="translate(250.146484 0)"/>
      <use xlink:href="#ArialMT-20" transform="translate(272.363281 0)"/>
      <use xlink:href="#ArialMT-47" transform="translate(300.146484 0)"/>
      <use xlink:href="#ArialMT-61" transform="translate(377.929688 0)"/>
      <use xlink:href="#ArialMT-69" transform="translate(433.544922 0)"/>
      <use xlink:href="#ArialMT-6e" transform="translate(455.761719 0)"/>
      <use xlink:href="#ArialMT-73" transform="translate(511.376953 0)"/>
     </g>
    </g>
    <g id="line2d_29">
     <path d="M 62.33625 56.9625 
L 74.33625 56.9625 
L 86.33625 56.9625 
" style="fill: none; stroke-dasharray: 5.55,2.4; stroke-dashoffset: 0; stroke: #000000; stroke-width: 1.5"/>
    </g>
    <g id="text_18">
     <!-- Random Selection (Baseline) -->
     <g style="fill: #262626" transform="translate(95.93625 61.1625) scale(0.12 -0.12)">
      <defs>
       <path id="ArialMT-52" d="M 503 0 
L 503 4581 
L 2534 4581 
Q 3147 4581 3465 4457 
Q 3784 4334 3975 4021 
Q 4166 3709 4166 3331 
Q 4166 2844 3850 2509 
Q 3534 2175 2875 2084 
Q 3116 1969 3241 1856 
Q 3506 1613 3744 1247 
L 4541 0 
L 3778 0 
L 3172 953 
Q 2906 1366 2734 1584 
Q 2563 1803 2427 1890 
Q 2291 1978 2150 2013 
Q 2047 2034 1813 2034 
L 1109 2034 
L 1109 0 
L 503 0 
z
M 1109 2559 
L 2413 2559 
Q 2828 2559 3062 2645 
Q 3297 2731 3419 2920 
Q 3541 3109 3541 3331 
Q 3541 3656 3305 3865 
Q 3069 4075 2559 4075 
L 1109 4075 
L 1109 2559 
z
" transform="scale(0.015625)"/>
       <path id="ArialMT-6d" d="M 422 0 
L 422 3319 
L 925 3319 
L 925 2853 
Q 1081 3097 1340 3245 
Q 1600 3394 1931 3394 
Q 2300 3394 2536 3241 
Q 2772 3088 2869 2813 
Q 3263 3394 3894 3394 
Q 4388 3394 4653 3120 
Q 4919 2847 4919 2278 
L 4919 0 
L 4359 0 
L 4359 2091 
Q 4359 2428 4304 2576 
Q 4250 2725 4106 2815 
Q 3963 2906 3769 2906 
Q 3419 2906 3187 2673 
Q 2956 2441 2956 1928 
L 2956 0 
L 2394 0 
L 2394 2156 
Q 2394 2531 2256 2718 
Q 2119 2906 1806 2906 
Q 1569 2906 1367 2781 
Q 1166 2656 1075 2415 
Q 984 2175 984 1722 
L 984 0 
L 422 0 
z
" transform="scale(0.015625)"/>
       <path id="ArialMT-53" d="M 288 1472 
L 859 1522 
Q 900 1178 1048 958 
Q 1197 738 1509 602 
Q 1822 466 2213 466 
Q 2559 466 2825 569 
Q 3091 672 3220 851 
Q 3350 1031 3350 1244 
Q 3350 1459 3225 1620 
Q 3100 1781 2813 1891 
Q 2628 1963 1997 2114 
Q 1366 2266 1113 2400 
Q 784 2572 623 2826 
Q 463 3081 463 3397 
Q 463 3744 659 4045 
Q 856 4347 1234 4503 
Q 1613 4659 2075 4659 
Q 2584 4659 2973 4495 
Q 3363 4331 3572 4012 
Q 3781 3694 3797 3291 
L 3216 3247 
Q 3169 3681 2898 3903 
Q 2628 4125 2100 4125 
Q 1550 4125 1298 3923 
Q 1047 3722 1047 3438 
Q 1047 3191 1225 3031 
Q 1400 2872 2139 2705 
Q 2878 2538 3153 2413 
Q 3553 2228 3743 1945 
Q 3934 1663 3934 1294 
Q 3934 928 3725 604 
Q 3516 281 3123 101 
Q 2731 -78 2241 -78 
Q 1619 -78 1198 103 
Q 778 284 539 648 
Q 300 1013 288 1472 
z
" transform="scale(0.015625)"/>
      </defs>
      <use xlink:href="#ArialMT-52"/>
      <use xlink:href="#ArialMT-61" transform="translate(72.216797 0)"/>
      <use xlink:href="#ArialMT-6e" transform="translate(127.832031 0)"/>
      <use xlink:href="#ArialMT-64" transform="translate(183.447266 0)"/>
      <use xlink:href="#ArialMT-6f" transform="translate(239.0625 0)"/>
      <use xlink:href="#ArialMT-6d" transform="translate(294.677734 0)"/>
      <use xlink:href="#ArialMT-20" transform="translate(377.978516 0)"/>
      <use xlink:href="#ArialMT-53" transform="translate(405.761719 0)"/>
      <use xlink:href="#ArialMT-65" transform="translate(472.460938 0)"/>
      <use xlink:href="#ArialMT-6c" transform="translate(528.076172 0)"/>
      <use xlink:href="#ArialMT-65" transform="translate(550.292969 0)"/>
      <use xlink:href="#ArialMT-63" transform="translate(605.908203 0)"/>
      <use xlink:href="#ArialMT-74" transform="translate(655.908203 0)"/>
      <use xlink:href="#ArialMT-69" transform="translate(683.691406 0)"/>
      <use xlink:href="#ArialMT-6f" transform="translate(705.908203 0)"/>
      <use xlink:href="#ArialMT-6e" transform="translate(761.523438 0)"/>
      <use xlink:href="#ArialMT-20" transform="translate(817.138672 0)"/>
      <use xlink:href="#ArialMT-28" transform="translate(844.921875 0)"/>
      <use xlink:href="#ArialMT-42" transform="translate(878.222656 0)"/>
      <use xlink:href="#ArialMT-61" transform="translate(944.921875 0)"/>
      <use xlink:href="#ArialMT-73" transform="translate(1000.537109 0)"/>
      <use xlink:href="#ArialMT-65" transform="translate(1050.537109 0)"/>
      <use xlink:href="#ArialMT-6c" transform="translate(1106.152344 0)"/>
      <use xlink:href="#ArialMT-69" transform="translate(1128.369141 0)"/>
      <use xlink:href="#ArialMT-6e" transform="translate(1150.585938 0)"/>
      <use xlink:href="#ArialMT-65" transform="translate(1206.201172 0)"/>
      <use xlink:href="#ArialMT-29" transform="translate(1261.816406 0)"/>
     </g>
    </g>
   </g>
  </g>
 </g>
 <defs>
  <clipPath id="p6e5e72ec29">
   <rect x="51.53625" y="24.6525" width="558" height="443.52"/>
  </clipPath>
 </defs>
</svg>
